<?xml version="1.0" encoding="utf-8"?>
<!-- Generator: Adobe Illustrator 23.0.1, SVG Export Plug-In . SVG Version: 6.00 Build 0)  -->
<svg version="1.1" id="Layer_1" xmlns="http://www.w3.org/2000/svg" xmlns:xlink="http://www.w3.org/1999/xlink" x="0px" y="0px"
	 viewBox="0 0 34 30" style="enable-background:new 0 0 34 30;" xml:space="preserve">
<style type="text/css">
	.st0{fill:#FFFFFF;stroke:#EF3E35;stroke-width:1.1232;stroke-miterlimit:10;}
</style>
<g>
	<path class="st0" d="M5.43,23.65c1.86-1.89,3.71-3.73,5.51-5.63c0.11-0.12-0.04-0.67-0.23-0.87c-1.43-1.49-2.9-2.93-4.37-4.39
		c-0.32-0.32-0.65-0.62-0.8-0.75c-0.6,0.41-1.1,0.75-1.76,1.2c1.64,1.55,3.13,2.97,4.83,4.57c-1.27,1.18-2.44,2.23-3.56,3.32
		C3.78,22.35,3.8,22.36,5.43,23.65z"/>
	<g>
		<path class="st0" d="M19.83,8.4v17.7c0,0.7,0.68,1.2,1.35,1l8.38-2.56c0.44-0.13,0.74-0.54,0.74-1V5.84c0-0.72-0.72-1.23-1.4-0.98
			l-8.38,2.56C20.11,7.57,19.83,7.96,19.83,8.4z"/>
		<path class="st0" d="M18.17,24.31V8.18c0,0-0.16-1.89,2.14-2.66c1.43-0.48,5.71-1.66,5.65-1.63c-0.13,0.09,0.11-0.28-0.05-0.28
			H15.17c0,0-1.77,0-1.77,1.66s0,5.15,0,5.15s0.24,1.51,2.85,1.27V23.6C16.26,23.6,16.5,24.55,18.17,24.31z"/>
	</g>
</g>
</svg>
